<?xml version="1.0" standalone="no"?>
<!DOCTYPE svg PUBLIC "-//W3C//DTD SVG 20010904//EN"
 "http://www.w3.org/TR/2001/REC-SVG-20010904/DTD/svg10.dtd">
<svg version="1.0" xmlns="http://www.w3.org/2000/svg"
 width="1124.000000pt" height="1124.000000pt" viewBox="0 0 1124.000000 1124.000000"
 preserveAspectRatio="xMidYMid meet">
<metadata>
Created by potrace 1.11, written by Peter Selinger 2001-2013
</metadata>
<g transform="translate(0.000000,1124.000000) scale(0.100000,-0.100000)"
fill="#000000" stroke="none">
<path d="M6105 11229 c-38 -4 -95 -10 -125 -13 -112 -12 -185 -22 -185 -26 0
-1 -18 -4 -40 -5 -22 -2 -40 -4 -40 -5 0 -2 -16 -5 -60 -13 -16 -3 -63 -12
-103 -21 -40 -9 -76 -16 -78 -16 -3 0 -3 -4 1 -9 5 -9 73 -26 140 -36 69 -9
362 -90 515 -142 245 -82 434 -164 660 -284 53 -28 238 -140 310 -187 93 -62
307 -218 330 -242 3 -3 21 -18 40 -34 159 -130 420 -391 546 -546 16 -19 31
-37 34 -40 9 -9 114 -143 156 -200 257 -348 468 -753 603 -1160 23 -69 43
-134 46 -145 2 -11 16 -63 30 -115 14 -52 27 -108 30 -125 4 -16 11 -50 16
-75 10 -42 16 -72 24 -127 2 -12 6 -34 9 -50 6 -29 12 -71 22 -163 3 -30 8
-68 10 -85 26 -192 26 -878 0 -956 -3 -8 -7 -36 -10 -64 -2 -27 -9 -81 -16
-120 -10 -67 -13 -85 -25 -150 -12 -62 -75 -313 -100 -395 -14 -47 -27 -92
-30 -100 -2 -8 -22 -67 -45 -130 -23 -63 -45 -126 -50 -140 -4 -14 -32 -81
-63 -150 -49 -112 -59 -148 -72 -240 -2 -14 -7 -45 -11 -70 -4 -25 -8 -54 -10
-65 -5 -37 -34 -180 -44 -215 -5 -19 -11 -46 -14 -60 -2 -14 -19 -72 -36 -130
-16 -58 -32 -112 -34 -120 -10 -39 -88 -245 -125 -335 -24 -55 -99 -214 -168
-353 -68 -140 -122 -256 -120 -259 14 -14 382 165 562 274 100 60 262 168 312
208 7 6 23 18 35 27 214 161 490 422 656 620 120 144 312 406 312 428 0 4 4
10 8 12 14 5 143 231 211 368 77 154 157 341 206 480 20 58 40 116 45 130 13
38 56 188 70 245 37 155 65 293 75 375 3 25 7 52 9 60 3 8 7 42 11 75 3 33 8
80 10 105 22 195 22 555 0 764 -3 28 -8 74 -11 101 -2 28 -7 61 -9 75 -3 14
-7 43 -10 65 -3 22 -10 65 -15 95 -6 30 -13 66 -15 80 -5 27 -7 37 -25 115 -6
28 -14 59 -16 70 -2 11 -17 70 -34 130 -17 61 -32 117 -34 125 -3 8 -10 29
-16 45 -6 17 -13 37 -15 45 -5 24 -70 199 -100 270 -43 103 -48 115 -49 120
-3 9 -116 235 -144 285 -90 164 -175 299 -259 412 -29 40 -53 75 -53 79 0 3
-6 11 -13 19 -7 7 -42 49 -77 94 -36 44 -68 81 -72 81 -4 0 -8 4 -8 9 0 26
-355 382 -477 478 -15 12 -40 32 -55 45 -14 13 -36 30 -48 38 -12 8 -28 20
-34 26 -57 53 -303 217 -475 316 -86 49 -302 157 -396 198 -80 34 -275 110
-293 114 -9 2 -24 6 -32 9 -55 23 -292 91 -390 112 -8 2 -35 8 -60 14 -25 5
-58 12 -75 15 -16 3 -39 8 -50 10 -11 2 -56 9 -100 16 -44 7 -87 13 -95 15 -8
1 -46 6 -85 10 -38 3 -99 10 -135 14 -83 10 -574 10 -665 0z"/>
<path d="M4186 9663 c-1 -1 -45 -5 -97 -8 -143 -9 -223 -17 -344 -35 -33 -5
-77 -12 -97 -14 -20 -3 -54 -9 -75 -15 -21 -6 -54 -13 -73 -16 -49 -8 -304
-73 -337 -86 -16 -6 -36 -12 -45 -14 -38 -8 -90 -39 -106 -64 -9 -14 -21 -30
-25 -36 -38 -46 -183 -301 -256 -450 -77 -155 -201 -452 -204 -487 -1 -10 -6
-18 -11 -18 -5 0 -7 -3 -3 -6 3 -3 -4 -31 -15 -62 -10 -32 -21 -64 -23 -72 -2
-8 -16 -60 -30 -115 -30 -113 -28 -104 -49 -205 -17 -84 -23 -117 -31 -175 -3
-22 -8 -52 -11 -67 -3 -15 -7 -44 -9 -65 -2 -21 -7 -67 -11 -103 -4 -36 -7
-81 -8 -100 -1 -20 -5 -40 -8 -45 -6 -12 -2 -581 5 -640 3 -22 8 -73 11 -114
4 -41 9 -77 11 -80 2 -4 6 -33 10 -65 10 -94 37 -236 77 -396 50 -206 178
-574 193 -558 2 2 6 73 9 158 4 85 8 169 10 185 2 17 7 57 10 90 6 56 11 96
21 170 3 28 19 123 30 190 35 202 149 592 216 742 10 24 19 47 19 52 0 40 234
498 332 649 10 15 27 43 38 62 20 35 113 169 160 230 88 116 143 186 149 190
3 3 26 30 51 59 25 30 54 64 65 76 167 176 290 296 385 375 30 25 57 47 60 50
52 56 417 311 565 395 155 88 461 242 568 285 59 24 62 35 15 44 -15 2 -31 7
-35 9 -5 3 -32 8 -62 11 -29 4 -57 8 -60 11 -4 2 -25 6 -46 9 -22 3 -51 7 -65
11 -14 3 -45 8 -70 10 -25 3 -52 8 -60 10 -14 5 -70 11 -165 20 -141 13 -570
27 -579 18z"/>
<path d="M5570 9450 c-235 -75 -568 -237 -898 -435 -95 -57 -350 -246 -457
-339 -112 -96 -366 -353 -456 -461 -93 -110 -205 -259 -291 -385 -62 -91 -90
-136 -150 -239 -38 -64 -179 -344 -208 -411 -12 -30 -30 -71 -38 -90 -9 -19
-17 -39 -18 -45 -1 -5 -17 -48 -34 -95 -30 -81 -71 -204 -74 -225 -1 -5 -5
-16 -9 -22 -5 -7 -6 -13 -3 -13 3 0 -2 -16 -10 -35 -8 -19 -14 -36 -13 -37 1
-3 -5 -29 -26 -118 -8 -36 -17 -76 -19 -90 -3 -14 -5 -25 -6 -25 -1 0 -3 -11
-6 -25 -2 -14 -10 -63 -18 -110 -17 -94 -24 -146 -31 -211 -3 -24 -7 -60 -10
-79 -11 -66 -18 -420 -9 -420 5 0 18 24 28 53 10 28 43 108 73 177 30 69 55
130 57 135 3 13 96 197 149 295 72 134 241 401 259 408 4 2 8 8 8 14 0 6 10
22 23 37 12 15 31 40 42 55 11 16 34 45 50 65 17 21 46 57 65 81 19 24 49 60
67 79 18 20 41 47 53 61 65 76 243 249 349 340 35 30 69 60 76 67 7 7 44 36
81 65 38 29 74 56 79 60 85 69 324 226 474 313 121 69 430 225 441 222 3 -1
23 8 45 20 116 61 552 201 715 229 14 3 57 11 95 19 39 7 88 16 110 20 22 3
67 10 100 15 298 46 657 55 1038 25 37 -3 67 -2 67 3 0 8 -179 185 -251 247
-393 341 -807 589 -1280 765 -152 57 -167 59 -229 40z m445 -490 c6 -5 14 -8
18 -8 32 0 126 -103 133 -145 1 -7 5 -25 8 -41 3 -16 1 -50 -5 -77 -10 -44
-13 -49 -55 -63 -153 -52 -304 60 -304 226 0 57 17 106 38 111 32 7 157 5 167
-3z"/>
<path d="M2730 9333 c-227 -103 -458 -226 -633 -340 -92 -59 -303 -212 -352
-254 -244 -211 -450 -415 -557 -555 -12 -16 -25 -31 -29 -34 -3 -3 -43 -54
-89 -115 -136 -179 -281 -409 -379 -601 -36 -71 -42 -91 -48 -174 -15 -207 -7
-784 12 -850 2 -8 7 -37 9 -65 6 -68 18 -141 42 -262 2 -13 6 -33 8 -45 3 -13
14 -61 26 -108 11 -47 23 -94 25 -104 37 -165 201 -580 323 -814 91 -176 295
-505 362 -585 6 -7 40 -50 76 -97 190 -245 459 -510 709 -699 22 -17 45 -34
50 -39 214 -166 581 -376 870 -499 183 -78 452 -166 631 -208 10 -2 37 -9 59
-14 22 -5 60 -13 85 -16 24 -4 48 -9 53 -12 4 -3 18 -6 30 -7 26 -3 130 -19
137 -21 3 -1 37 -5 75 -9 39 -5 79 -10 90 -12 97 -19 581 -25 765 -10 119 10
155 14 155 16 0 1 9 3 20 5 11 1 36 5 55 8 19 3 64 11 100 17 58 10 105 18
150 25 8 1 31 5 50 9 40 7 81 14 93 15 20 2 -6 19 -40 26 -21 5 -42 9 -48 11
-5 1 -21 4 -35 7 -14 3 -79 19 -145 36 -66 17 -130 33 -143 36 -12 2 -27 7
-32 10 -6 4 -22 8 -36 11 -25 5 -296 99 -359 125 -16 7 -32 13 -35 14 -3 1
-18 7 -35 14 -16 7 -30 12 -30 11 0 -3 -211 97 -300 142 -390 199 -734 448
-1035 748 -105 105 -254 272 -289 324 -8 12 -18 23 -21 26 -50 42 -380 544
-380 578 0 6 -4 12 -9 14 -26 10 -324 652 -320 691 0 1 -7 19 -16 41 -9 21
-32 88 -51 150 -35 108 -39 123 -49 167 -2 11 -7 29 -10 39 -3 10 -8 27 -10
37 -2 10 -12 56 -24 103 -17 72 -26 121 -56 296 -2 12 -6 46 -10 75 -3 30 -8
68 -10 84 -24 195 -24 699 0 823 2 11 6 45 10 74 3 29 7 64 9 78 2 14 7 48 10
75 4 28 9 57 11 65 2 8 7 29 10 45 2 17 7 39 9 50 28 129 38 172 41 185 11 46
38 137 65 225 17 55 33 107 35 115 10 35 63 179 83 224 12 27 22 52 22 56 0 4
10 29 22 56 12 27 23 51 23 54 9 32 184 390 228 464 15 27 25 52 20 57 -4 4
-24 1 -43 -8z"/>
<path d="M6788 8265 c-2 -1 -77 -5 -168 -9 -91 -3 -176 -8 -190 -11 -14 -3
-52 -7 -85 -10 -33 -3 -67 -8 -75 -10 -13 -3 -46 -8 -140 -20 -8 -1 -30 -5
-48 -9 -19 -4 -43 -9 -55 -11 -134 -18 -183 -33 -117 -36 53 -2 115 -7 115 -8
0 -1 34 -4 75 -6 41 -2 86 -7 99 -9 13 -3 47 -8 75 -11 77 -9 122 -17 246 -47
47 -11 94 -22 106 -24 33 -6 264 -84 329 -111 170 -70 433 -215 520 -286 6 -4
35 -26 65 -48 197 -146 409 -367 630 -661 11 -14 20 -31 20 -37 0 -6 5 -11 10
-11 6 0 10 -6 10 -14 0 -8 4 -16 8 -18 4 -1 18 -20 31 -40 12 -21 27 -38 32
-38 12 0 12 -1 -15 82 -21 65 -32 94 -62 173 -4 11 -8 22 -9 25 -1 3 -9 23
-19 45 -10 22 -26 62 -37 88 -19 49 -139 290 -179 362 -104 187 -289 459 -390
575 -12 14 -27 32 -34 40 -19 25 -44 42 -68 45 -13 1 -41 5 -63 9 -22 3 -65 8
-95 12 -30 3 -68 7 -85 9 -83 10 -430 26 -437 20z"/>
<path d="M5654 7271 c-3 -3 -31 -6 -62 -8 -31 -1 -91 -6 -132 -12 -41 -5 -82
-9 -90 -9 -8 0 -61 -12 -118 -26 -57 -14 -117 -28 -135 -30 -30 -5 -73 -17
-217 -61 -95 -29 -131 -48 -144 -74 -13 -26 -57 -188 -62 -226 -1 -11 -3 -20
-4 -20 -3 0 -10 -39 -16 -90 -3 -27 -10 -70 -15 -94 -11 -48 -16 -90 -24 -191
-3 -36 -8 -90 -10 -120 -8 -89 -8 -122 -1 -185 4 -33 9 -89 11 -124 7 -114 16
-205 21 -212 2 -4 6 -27 9 -50 8 -62 55 -281 66 -301 5 -9 11 -33 15 -53 3
-20 12 -54 19 -76 8 -21 11 -39 8 -39 -4 0 -2 -5 5 -12 7 -7 12 -18 12 -26 0
-8 6 -28 14 -45 7 -18 22 -54 31 -82 10 -27 28 -74 41 -103 13 -29 24 -56 24
-60 1 -4 6 -13 12 -19 6 -7 7 -13 4 -13 -4 0 2 -13 13 -29 12 -16 21 -36 21
-45 0 -9 4 -16 8 -16 4 0 16 -20 26 -45 11 -25 23 -45 28 -45 4 0 8 -9 8 -19
0 -11 4 -22 9 -25 5 -3 22 -30 39 -59 33 -58 153 -233 180 -263 10 -10 24 -28
32 -40 64 -92 340 -374 466 -476 91 -74 132 -77 200 -13 7 5 29 24 50 41 72
58 210 190 279 266 80 88 98 109 150 178 28 36 53 67 56 70 17 15 209 313 209
325 0 1 18 35 40 75 22 40 40 77 40 82 0 6 9 23 21 39 11 16 18 29 15 29 -3 0
3 17 14 37 11 21 20 44 20 51 0 7 6 23 14 35 15 23 94 257 99 292 1 11 6 25 9
31 4 5 16 55 28 110 11 54 23 108 25 119 3 11 7 38 10 60 3 22 8 49 12 60 25
80 37 530 19 745 -10 133 -11 141 -19 165 -3 11 -8 40 -12 65 -6 49 -12 84
-15 88 -3 3 -5 9 -15 62 -5 25 -9 47 -10 50 -1 3 -5 23 -10 45 -20 95 -57 137
-135 151 -19 4 -39 10 -45 14 -10 7 -114 40 -137 44 -7 1 -18 5 -25 9 -7 4
-27 9 -45 11 -30 3 -112 22 -148 34 -16 5 -19 6 -100 17 -30 4 -58 9 -61 11
-3 2 -39 6 -80 9 -41 3 -99 8 -129 11 -78 8 -409 11 -416 5z"/>
<path d="M10719 7078 c-1 -4 -8 -67 -13 -128 -3 -30 -8 -82 -11 -115 -3 -33
-8 -82 -10 -110 -11 -113 -17 -163 -26 -225 -15 -97 -18 -118 -35 -205 -9 -44
-17 -87 -18 -95 -1 -8 -5 -24 -9 -35 -3 -11 -8 -31 -11 -45 -16 -82 -41 -170
-89 -320 -12 -36 -22 -69 -23 -75 -15 -66 -184 -467 -251 -595 -57 -107 -153
-271 -170 -288 -7 -7 -13 -19 -13 -27 0 -7 -3 -15 -7 -17 -5 -1 -26 -30 -48
-63 -38 -58 -115 -165 -125 -175 -3 -3 -27 -34 -55 -70 -187 -243 -451 -510
-705 -713 -47 -37 -94 -75 -105 -85 -44 -36 -327 -222 -416 -272 -208 -118
-456 -235 -638 -301 -80 -29 -111 -58 -218 -202 -25 -34 -48 -64 -52 -67 -3
-3 -28 -32 -56 -65 -70 -86 -95 -112 -240 -259 -154 -155 -198 -194 -432 -382
-43 -34 -97 -71 -223 -154 -58 -38 -110 -74 -117 -80 -7 -5 -15 -10 -18 -10
-3 0 -22 -11 -43 -23 -85 -54 -324 -179 -408 -215 -28 -12 -80 -35 -116 -51
-35 -17 -76 -35 -91 -40 -15 -6 -27 -14 -27 -19 0 -10 187 -55 284 -67 21 -3
41 -7 45 -9 3 -2 31 -7 61 -10 30 -3 69 -8 85 -11 123 -21 280 -30 535 -29
218 0 376 6 450 19 14 2 50 7 80 10 30 3 69 8 85 11 138 23 248 44 300 57 11
3 43 10 70 17 56 12 252 67 275 77 8 3 20 7 25 8 22 6 183 64 220 80 22 9 45
18 50 19 6 1 33 12 60 25 28 13 55 24 60 25 19 4 250 121 354 180 89 50 238
142 304 188 91 63 263 194 287 218 3 3 28 23 55 44 65 52 399 386 451 451 21
28 44 55 50 60 18 16 167 214 226 300 157 231 292 476 394 717 50 119 165 447
178 509 3 13 10 42 16 64 6 22 13 51 16 65 3 14 10 43 15 65 5 22 12 51 14 65
2 14 7 36 10 50 12 60 31 174 40 253 3 23 8 53 11 67 10 42 14 781 4 845 -4
33 -11 83 -15 110 -4 28 -9 64 -11 80 -2 17 -7 50 -10 74 -3 25 -7 48 -10 53
-3 4 -7 21 -9 38 -2 16 -8 53 -14 82 -6 29 -13 62 -15 73 -16 77 -38 172 -56
245 -12 47 -23 92 -25 100 -25 112 -116 335 -126 308z"/>
<path d="M461 6899 c-11 -28 -23 -60 -27 -74 -2 -5 -17 -55 -33 -110 -17 -55
-33 -109 -35 -120 -3 -11 -16 -67 -30 -125 -14 -58 -28 -121 -31 -140 -3 -19
-8 -48 -11 -65 -2 -16 -9 -55 -14 -85 -5 -30 -12 -75 -15 -100 -3 -25 -7 -63
-10 -85 -24 -202 -24 -675 0 -855 3 -19 7 -62 10 -95 3 -33 7 -69 9 -80 2 -11
7 -40 11 -65 10 -68 14 -93 20 -120 3 -14 9 -47 15 -75 14 -74 19 -95 25 -115
3 -10 8 -28 10 -39 20 -89 42 -169 84 -296 104 -322 271 -673 446 -940 29 -44
57 -90 64 -102 6 -12 17 -27 24 -35 7 -7 36 -46 65 -86 29 -40 59 -80 67 -90
116 -142 121 -149 213 -251 134 -149 345 -343 507 -469 34 -26 106 -79 125
-92 12 -8 28 -19 34 -25 6 -5 43 -31 81 -57 309 -206 682 -387 1030 -498 183
-58 477 -129 605 -145 19 -2 51 -7 70 -10 19 -3 55 -8 80 -11 25 -3 56 -7 70
-9 158 -24 660 -25 865 -1 108 12 187 24 320 47 149 26 621 161 733 209 12 6
32 14 45 19 166 69 409 184 515 246 9 6 44 25 77 44 62 36 325 211 350 233 19
17 28 25 102 81 34 26 68 53 75 60 7 6 45 39 83 72 86 73 291 279 365 366 30
35 60 69 66 75 5 6 24 29 41 50 83 103 123 154 164 214 24 36 47 67 50 70 12
11 159 251 208 340 55 99 153 298 149 302 -1 2 6 17 15 33 9 17 30 66 47 110
17 44 35 89 40 100 10 23 78 232 85 261 4 17 19 80 30 124 2 8 11 39 19 68 16
57 8 67 -19 25 -20 -31 -181 -257 -201 -282 -240 -301 -485 -550 -733 -744
-20 -15 -43 -33 -51 -40 -343 -272 -858 -543 -1290 -679 -52 -16 -102 -32
-110 -35 -8 -3 -22 -7 -30 -8 -8 -1 -50 -12 -93 -24 -43 -13 -90 -25 -105 -27
-15 -3 -35 -7 -44 -10 -10 -3 -30 -7 -45 -10 -16 -3 -59 -11 -98 -19 -38 -7
-88 -16 -110 -20 -23 -3 -52 -8 -65 -10 -27 -6 -58 -11 -105 -19 -16 -3 -57
-8 -90 -10 -33 -3 -94 -8 -135 -12 -105 -10 -477 -9 -585 1 -49 5 -101 10
-115 11 -52 3 -156 15 -170 19 -8 3 -33 7 -55 10 -35 4 -152 25 -225 40 -14 3
-38 8 -54 10 -16 3 -37 10 -47 16 -11 5 -19 8 -19 5 0 -3 -21 1 -47 9 -25 8
-50 12 -55 9 -4 -3 -8 -1 -8 4 0 5 -6 9 -12 9 -28 1 -358 105 -390 123 -10 6
-22 10 -27 10 -5 0 -26 8 -47 17 -22 9 -41 17 -44 17 -27 3 -346 157 -475 228
-93 52 -267 159 -300 186 -5 4 -26 18 -45 32 -55 38 -222 163 -250 186 -185
158 -379 345 -495 479 -33 39 -62 72 -65 75 -11 11 -106 128 -125 154 -11 16
-25 33 -30 40 -25 26 -130 175 -160 225 -11 18 -30 46 -42 61 -13 15 -23 31
-23 35 0 3 -14 26 -30 50 -17 24 -30 46 -30 48 0 2 -23 44 -51 93 -45 77 -127
242 -183 366 -56 124 -180 461 -191 518 -2 8 -10 42 -19 75 -9 33 -19 71 -22
85 -3 14 -11 53 -19 88 -8 34 -17 77 -20 95 -3 17 -8 39 -10 47 -4 17 -10 54
-30 195 -23 162 -32 277 -40 474 -2 73 -7 136 -9 139 -3 2 -10 -6 -15 -19z"/>
<path d="M10921 4088 c-75 -194 -200 -468 -275 -603 -67 -120 -103 -179 -189
-309 -55 -83 -104 -153 -107 -156 -3 -3 -19 -23 -36 -45 -52 -71 -166 -210
-175 -213 -5 -2 -9 -7 -9 -12 0 -4 -15 -23 -32 -42 -174 -182 -238 -246 -324
-323 -146 -131 -240 -209 -369 -303 -38 -29 -74 -55 -80 -59 -5 -5 -59 -40
-120 -79 -389 -252 -798 -432 -1241 -544 -83 -22 -164 -41 -180 -44 -16 -3
-54 -10 -84 -16 -30 -6 -66 -12 -80 -15 -14 -3 -43 -7 -65 -10 -22 -3 -56 -8
-75 -11 -42 -6 -98 -13 -160 -19 -25 -3 -61 -7 -80 -10 -64 -8 -584 -12 -655
-5 -38 5 -97 11 -130 14 -96 10 -146 16 -215 28 -36 5 -74 12 -86 13 -11 2
-47 9 -80 16 -69 14 -81 17 -114 23 -14 2 -70 16 -125 31 -55 14 -108 28 -118
30 -9 2 -22 7 -28 11 -21 12 -111 4 -186 -17 -41 -11 -82 -22 -91 -24 -9 -2
-33 -9 -52 -15 -57 -17 -221 -53 -300 -64 -8 -2 -33 -6 -55 -9 -51 -9 -104
-16 -180 -23 -33 -3 -62 -7 -65 -9 -10 -6 -276 -19 -400 -19 -179 1 -464 17
-497 29 -7 2 -15 0 -19 -6 -5 -9 171 -190 252 -259 25 -21 200 -165 230 -189
12 -10 158 -114 184 -131 15 -10 69 -46 99 -65 163 -105 461 -257 641 -328
104 -40 374 -135 403 -141 32 -7 75 -19 97 -27 14 -4 36 -11 50 -13 14 -2 63
-14 110 -25 81 -19 131 -30 175 -36 11 -2 49 -8 85 -14 242 -39 324 -45 650
-46 252 0 344 4 455 19 17 2 56 7 87 10 31 4 83 11 115 17 32 5 70 12 86 14
15 3 39 7 55 10 15 2 56 11 92 20 36 9 77 18 92 20 15 2 32 6 38 10 5 3 20 8
31 10 79 15 391 119 484 160 17 8 59 26 95 40 153 63 459 223 557 292 17 13
34 23 38 23 7 0 216 142 256 174 15 12 40 31 55 43 41 31 152 122 194 158 75
64 350 345 421 430 263 314 463 636 623 1000 26 61 54 125 62 142 41 91 173
517 189 608 2 11 11 54 20 95 9 41 18 91 21 110 3 19 9 60 14 90 6 30 12 82
16 115 3 33 7 76 9 95 2 19 7 82 11 140 14 214 9 300 -15 238z"/>
</g>
</svg>
